<svg xmlns="http://www.w3.org/2000/svg" width="23" height="24" viewBox="0 0 23 24" fill="none">
  <path d="M11.725 9.95984V14.3068H17.7658C17.5006 15.7048 16.7045 16.8885 15.5107 17.6844L19.1535 20.5109C21.276 18.5518 22.5005 15.6742 22.5005 12.2559C22.5005 11.46 22.4291 10.6946 22.2964 9.95996L11.725 9.95984Z" fill="#4285F4"/>
  <path d="M5.4346 14.1364L4.613 14.7653L1.70479 17.0306C3.55173 20.6938 7.33717 23.2244 11.7249 23.2244C14.7554 23.2244 17.2962 22.2244 19.1534 20.5102L15.5106 17.6836C14.5106 18.3571 13.235 18.7653 11.7249 18.7653C8.80654 18.7653 6.32701 16.7959 5.43919 14.1428L5.4346 14.1364Z" fill="#34A853"/>
  <path d="M1.70352 6.96924C0.938257 8.47938 0.499527 10.1835 0.499527 11.9998C0.499527 13.8161 0.938257 15.5202 1.70352 17.0303C1.70352 17.0405 5.43829 14.1324 5.43829 14.1324C5.2138 13.4589 5.08111 12.7447 5.08111 11.9997C5.08111 11.2547 5.2138 10.5404 5.43829 9.86697L1.70352 6.96924Z" fill="#FBBC05"/>
  <path d="M11.7251 5.24478C13.3782 5.24478 14.8476 5.8162 16.021 6.91826L19.2353 3.70401C17.2863 1.88771 14.7558 0.775391 11.7251 0.775391C7.3374 0.775391 3.55173 3.2958 1.70479 6.96929L5.43944 9.86725C6.32714 7.21416 8.80677 5.24478 11.7251 5.24478Z" fill="#EA4335"/>
</svg>