<svg width="21" height="22" viewBox="0 0 21 22" fill="currentColor" xmlns="http://www.w3.org/2000/svg">
<path fill-rule="evenodd" clip-rule="evenodd" d="M7.5 1.4H18.5C18.8314 1.4 19.1 1.66863 19.1 2V20C19.1 20.3314 18.8314 20.6 18.5 20.6H7.5C7.16863 20.6 6.9 20.3314 6.9 20V16H5.5V20C5.5 21.1046 6.39543 22 7.5 22H18.5C19.6046 22 20.5 21.1046 20.5 20V2C20.5 0.895431 19.6046 0 18.5 0H7.5C6.39543 0 5.5 0.89543 5.5 2V6H6.9V2C6.9 1.66863 7.16863 1.4 7.5 1.4Z" fill="currentColor"/>
<path fill-rule="evenodd" clip-rule="evenodd" d="M14.495 10.6495C14.7684 10.9228 14.7684 11.366 14.495 11.6394L10.8506 15.2839C10.5772 15.5572 10.134 15.5572 9.86065 15.2839C9.58728 15.0105 9.58728 14.5673 9.86065 14.2939L13.0101 11.1444L9.86065 7.99496C9.58728 7.7216 9.58728 7.27838 9.86065 7.00501C10.134 6.73165 10.5772 6.73165 10.8506 7.00501L14.495 10.6495Z" fill="currentColor"/>
<path d="M13.5 11.1444H1.5" stroke="currentColor" stroke-width="1.4" stroke-linecap="round"/>
</svg>
