<svg xmlns="http://www.w3.org/2000/svg" width="22" height="20" viewBox="0 0 22 20" fill="none">
  <path fill-rule="evenodd" clip-rule="evenodd" d="M2 1.59995H9C9.33137 1.59995 9.6 1.86858 9.6 2.19995V4.79995H1.4V2.19995C1.4 1.86858 1.66863 1.59995 2 1.59995ZM0 2.19995C0 1.09538 0.895431 0.199951 2 0.199951H9C10.1046 0.199951 11 1.09538 11 2.19995V4.79995L20 4.79996C21.1046 4.79996 22 5.69539 22 6.79996V17.8C22 18.9045 21.1046 19.8 20 19.8H2C0.89543 19.8 0 18.9045 0 17.8V6.19996V6.19995V4.79996V4.79995V2.19995ZM1.4 17.8V6.19996H20C20.3314 6.19996 20.6 6.46859 20.6 6.79996V17.8C20.6 18.1313 20.3314 18.4 20 18.4H2C1.66863 18.4 1.4 18.1313 1.4 17.8Z" fill="white"/>
  <path fill-rule="evenodd" clip-rule="evenodd" d="M11.2558 9.14893C11.2558 8.87278 11.0319 8.64893 10.7558 8.64893C10.4797 8.64893 10.2558 8.87278 10.2558 9.14893V11.6505H7.75421C7.47807 11.6505 7.25421 11.8743 7.25421 12.1505C7.25421 12.4266 7.47807 12.6505 7.75421 12.6505H10.2558V15.1518C10.2558 15.4279 10.4797 15.6518 10.7558 15.6518C11.0319 15.6518 11.2558 15.4279 11.2558 15.1518V12.6505H13.7571C14.0332 12.6505 14.2571 12.4266 14.2571 12.1505C14.2571 11.8743 14.0332 11.6505 13.7571 11.6505H11.2558V9.14893Z" fill="white"/>
</svg>