<svg width="135" height="40" viewBox="0 0 135 40" fill="none" xmlns="http://www.w3.org/2000/svg">
<path d="M16.7326 39.24C13.816 39.24 11.1632 38.5961 8.78148 37.3109C6.39736 36.0232 4.507 34.1668 3.11284 31.7367C1.71625 29.3041 1.01917 26.4408 1.01917 23.149V16.091C1.01917 12.7968 1.71625 9.93586 3.11284 7.50575C4.507 5.07564 6.39736 3.21675 8.78148 1.92908C11.1656 0.643834 13.816 0 16.7326 0C19.6492 0 22.2996 0.643834 24.6837 1.92908C27.0678 3.21675 28.9582 5.07322 30.3523 7.50575C31.7465 9.93586 32.446 12.7992 32.446 16.091V23.149C32.446 26.4432 31.7465 29.3041 30.3523 31.7367C28.9557 34.1668 27.0654 36.0257 24.6837 37.3109C22.2996 38.5961 19.6492 39.24 16.7326 39.24ZM16.7326 36.0886C19.0538 36.0886 21.1474 35.5779 23.0136 34.5589C24.8797 33.5399 26.3538 32.0344 27.4357 30.0424C28.5176 28.0503 29.0598 25.6275 29.0598 22.7738V16.4686C29.0598 13.6149 28.5201 11.1921 27.4357 9.20005C26.3538 7.20803 24.8797 5.70253 23.0136 4.68353C21.1474 3.66453 19.0538 3.15382 16.7326 3.15382C14.4114 3.15382 12.325 3.66453 10.4758 4.68353C8.62415 5.70253 7.15979 7.20803 6.07786 9.20005C4.99593 11.1921 4.45375 13.6149 4.45375 16.4686V22.7738C4.45375 25.6299 4.99593 28.0528 6.07786 30.0424C7.15979 32.0344 8.62657 33.5399 10.4758 34.5589C12.325 35.5779 14.4114 36.0886 16.7326 36.0886Z" fill="white"/>
<path d="M41.1984 27.806C41.1984 30.4419 41.8325 32.4871 43.1032 33.9466C44.374 35.4037 46.2619 36.1347 48.7719 36.1347C50.4033 36.1347 51.8531 35.7741 53.1238 35.0528C54.3945 34.3315 55.3893 33.3294 56.1106 32.0418C56.8319 30.7565 57.1926 29.297 57.1926 27.6656L58.6981 29.0767C58.6351 30.9913 58.1486 32.7243 57.2385 34.2758C56.3285 35.8273 55.0819 37.0424 53.499 37.9234C51.9136 38.802 50.1031 39.2401 48.0651 39.2401C46.0271 39.2401 44.1368 38.7706 42.5828 37.829C41.0314 36.8875 39.8381 35.5708 39.0079 33.8765C38.1752 32.1822 37.7614 30.224 37.7614 27.9948V11.3398H41.1959V27.806H41.1984ZM57.195 11.3398H60.5836V38.5334H57.4782L57.195 33.0753V11.3398Z" fill="white"/>
<path d="M73.9443 39.2399C72.2186 39.2399 70.6743 38.8792 69.3092 38.1579C67.9441 37.4366 66.8791 36.4322 66.1094 35.1469C65.3397 33.8617 64.9573 32.4191 64.9573 30.8192C64.9573 28.3092 65.8891 26.3027 67.7577 24.7972C69.6239 23.2917 72.2186 22.5389 75.5442 22.5389H85.33V25.5959H75.779C73.269 25.5959 71.4029 26.0655 70.1806 27.007C68.9582 27.9486 68.3459 29.2193 68.3459 30.8192C68.3459 32.4191 68.9026 33.7358 70.016 34.6773C71.1294 35.6189 72.6276 36.0885 74.5083 36.0885H76.2486C77.6282 36.0885 78.9231 35.8053 80.1309 35.2413C81.3387 34.6773 82.3117 33.8689 83.0476 32.8185C83.7834 31.768 84.1537 30.5675 84.1537 29.2193L85.376 30.5844C85.3131 32.2472 84.875 33.7358 84.0593 35.0549C83.2436 36.3716 82.123 37.4003 80.6949 38.1361C79.2669 38.8719 77.6282 39.2423 75.779 39.2423H73.9443V39.2399ZM84.4369 38.5331L84.1077 33.4042V21.3602C84.1077 19.0075 83.4639 17.1583 82.1786 15.8077C80.891 14.4595 79.0417 13.7842 76.6262 13.7842C74.9004 13.7842 73.4046 14.1618 72.1338 14.9145C70.8631 15.6673 69.8683 16.7178 69.147 18.0659L66.0876 16.6548C67.0292 14.8371 68.4548 13.3776 70.3694 12.2787C72.2815 11.1822 74.4454 10.6328 76.8634 10.6328C78.9643 10.6328 80.8159 11.0491 82.4158 11.8793C84.0157 12.712 85.2623 13.9198 86.1554 15.5027C87.0485 17.0857 87.4963 18.9615 87.4963 21.1254V38.5331H84.4369Z" fill="white"/>
<path d="M95.9629 38.5331H92.5283V11.3396H95.6337L95.9629 16.7976V38.5355V38.5331ZM111.96 22.0669C111.96 19.4625 111.325 17.4318 110.055 15.9747C108.784 14.5152 106.879 13.7866 104.338 13.7866C102.738 13.7866 101.302 14.1473 100.032 14.8686C98.7609 15.5898 97.7661 16.5846 97.0448 17.8554C96.3236 19.1261 95.9629 20.5759 95.9629 22.2073L94.4574 20.7962C94.5203 18.8841 95.0044 17.1583 95.9169 15.6213C96.827 14.0843 98.0638 12.8693 99.6347 11.9737C101.203 11.0806 103.006 10.6328 105.044 10.6328C107.082 10.6328 108.973 11.1024 110.527 12.0439C112.078 12.9855 113.271 14.3022 114.102 15.9965C114.932 17.6908 115.348 19.6513 115.348 21.8781V38.5331H111.96V22.0669Z" fill="white"/>
<path d="M117.466 14.4909V11.3395H133.651V14.4909H117.466ZM128.946 39.2398C127.034 39.2398 125.526 38.7146 124.43 37.6641C123.333 36.6136 122.784 35.021 122.784 32.8886V3.52881H126.17V32.5594C126.17 33.9391 126.436 34.8806 126.971 35.3816C127.504 35.8827 128.288 36.1344 129.324 36.1344C130.045 36.1344 130.728 36.04 131.371 35.8512C132.013 35.6624 132.727 35.3647 133.511 34.9581L134.453 37.7803C133.668 38.2499 132.79 38.6105 131.819 38.8622C130.846 39.1139 129.89 39.2398 128.949 39.2398H128.946Z" fill="white"/>
<path d="M31.3036 39.9997L15.9048 20.7428L10.5025 25.9637L0.968384 15.3041L3.31378 13.208L10.667 21.4278L16.2026 16.0786L33.7628 38.0343L31.3036 39.9997Z" fill="white"/>
</svg>
