<svg width="22" height="22" viewBox="0 0 22 22" fill="currentColor" xmlns="http://www.w3.org/2000/svg">
<path fill-rule="evenodd" clip-rule="evenodd" d="M15.4 0H2C0.895431 0 0 0.89543 0 2V20C0 21.1046 0.89543 22 2 22H20C21.1046 22 22 21.1046 22 20V6.60002H20.6V20C20.6 20.3314 20.3314 20.6 20 20.6H2C1.66863 20.6 1.4 20.3314 1.4 20V2C1.4 1.66863 1.66863 1.4 2 1.4H15.4V0Z" fill="currentColor"/>
<circle cx="19.8" cy="2.2" r="2.2" fill="currentColor"/>
<path d="M4.40001 15.9501L8.6097 10.112C8.67047 10.0278 8.78564 10.0041 8.87475 10.0575L13.0428 12.556C13.1317 12.6093 13.2465 12.5859 13.3074 12.5021L17.5998 6.60012" stroke="currentColor" stroke-width="1.4" stroke-linecap="round"/>
</svg>
