<svg width="22" height="22" viewBox="0 0 22 22" fill="currentColor" xmlns="http://www.w3.org/2000/svg">
<rect x="-6.10352e-05" width="10.0678" height="10.0678" rx="2" fill="currentColor"/>
<rect x="-6.10352e-05" y="11.9321" width="10.0678" height="10.0678" rx="2" fill="currentColor"/>
<rect x="11.9323" y="11.9321" width="10.0678" height="10.0678" rx="2" fill="currentColor"/>
<path fill-rule="evenodd" clip-rule="evenodd" d="M16.8815 0C16.6006 0 16.373 0.227652 16.373 0.508475V4.0678H12.8137C12.5328 4.0678 12.3052 4.29546 12.3052 4.57628C12.3052 4.8571 12.5328 5.08476 12.8137 5.08476H16.373V8.64409C16.373 8.92491 16.6006 9.15256 16.8815 9.15256C17.1623 9.15256 17.3899 8.92491 17.3899 8.64409V5.08476H20.9493C21.2301 5.08476 21.4577 4.8571 21.4577 4.57628C21.4577 4.29546 21.2301 4.0678 20.9493 4.0678H17.3899V0.508475C17.3899 0.227652 17.1623 0 16.8815 0Z" fill="currentColor"/>
</svg>
