<svg xmlns="http://www.w3.org/2000/svg" width="18" height="18" viewBox="0 0 18 18" fill="none">
  <path d="M8.36767 6.71777C9.11817 6.71777 9.72656 6.10938 9.72656 5.35889C9.72656 4.60839 9.11817 4 8.36767 4C7.61718 4 7.00879 4.60839 7.00879 5.35889C7.00879 6.10938 7.61718 6.71777 8.36767 6.71777Z" fill="#9797A8"/>
  <path d="M9.73519 12.5713V8.82562V7.60611V7.40576H7.01742V8.82562H7.76655V12.5713H7V13.9998H7.76655H9.71777H9.73519H10.4843V12.5713H9.73519Z" fill="#9797A8"/>
  <path d="M17.3 9C17.3 13.584 13.584 17.3 9 17.3C4.41604 17.3 0.7 13.584 0.7 9C0.7 4.41604 4.41604 0.7 9 0.7C13.584 0.7 17.3 4.41604 17.3 9Z" stroke="#9797A8" stroke-width="1.4" stroke-miterlimit="10"/>
</svg>