<svg xmlns="http://www.w3.org/2000/svg" width="18" height="18" viewBox="0 0 18 18" fill="none">
<path fill-rule="evenodd" clip-rule="evenodd" d="M16.778 2.35375C17.0905 2.04133 17.0905 1.5348 16.778 1.22238C16.4656 0.909957 15.9591 0.909957 15.6467 1.22238L9 7.86905L2.35333 1.22238C2.04091 0.909957 1.53438 0.909957 1.22196 1.22238C0.90954 1.5348 0.90954 2.04133 1.22196 2.35375L7.86863 9.00042L1.22243 15.6466C0.910011 15.959 0.910012 16.4656 1.22243 16.778C1.53485 17.0904 2.04138 17.0904 2.3538 16.778L9 10.1318L15.6462 16.778C15.9586 17.0904 16.4651 17.0904 16.7776 16.778C17.09 16.4656 17.09 15.959 16.7776 15.6466L10.1314 9.00042L16.778 2.35375Z" fill="white"/>
</svg>