<svg xmlns="http://www.w3.org/2000/svg" width="14" height="14" viewBox="0 0 14 14" fill="none">
  <path fill-rule="evenodd" clip-rule="evenodd" d="M13.7173 1.27344C13.9907 1.00007 13.9907 0.556856 13.7173 0.283489C13.444 0.0101218 13.0007 0.010122 12.7274 0.283489L7 6.01087L1.27262 0.283489C0.999255 0.0101221 0.55604 0.0101218 0.282673 0.283489C0.00930601 0.556856 0.00930628 1.00007 0.282673 1.27344L6.01005 7.00082L0.283377 12.7275C0.01001 13.0009 0.0100094 13.4441 0.283376 13.7174C0.556743 13.9908 0.99996 13.9908 1.27333 13.7174L7 7.99076L12.7267 13.7174C13 13.9908 13.4433 13.9908 13.7166 13.7174C13.99 13.4441 13.99 13.0009 13.7166 12.7275L7.98995 7.00082L13.7173 1.27344Z" fill="currentColor"/>
</svg>