<svg width="22" height="22" viewBox="0 0 22 22" fill="none" xmlns="http://www.w3.org/2000/svg">
<g id="Group">
<path id="Vector" d="M11.2107 9.0918V13.1581H16.8615C16.6134 14.4658 15.8687 15.5731 14.7519 16.3176L18.1596 18.9617C20.145 17.129 21.2905 14.4372 21.2905 11.2396C21.2905 10.4951 21.2237 9.77911 21.0995 9.09191L11.2107 9.0918Z" fill="#4285F4"/>
<path id="Vector_2" d="M5.32616 12.998L4.55761 13.5864L1.83716 15.7054C3.56485 19.1321 7.10589 21.4994 11.2103 21.4994C14.0452 21.4994 16.4219 20.5639 18.1592 18.9604L14.7516 16.3163C13.8161 16.9463 12.623 17.3281 11.2103 17.3281C8.48039 17.3281 6.16096 15.4859 5.33046 13.0041L5.32616 12.998Z" fill="#34A853"/>
<path id="Vector_3" d="M1.83598 6.29395C1.12012 7.70659 0.709717 9.30067 0.709717 10.9997C0.709717 12.6987 1.12012 14.2928 1.83598 15.7055C1.83598 15.715 5.32961 12.9946 5.32961 12.9946C5.11962 12.3646 4.99549 11.6965 4.99549 10.9996C4.99549 10.3027 5.11962 9.63457 5.32961 9.00459L1.83598 6.29395Z" fill="#FBBC05"/>
<path id="Vector_4" d="M11.2105 4.68083C12.7569 4.68083 14.1314 5.21535 15.2291 6.24626L18.2358 3.23953C16.4127 1.5405 14.0455 0.5 11.2105 0.5C7.1061 0.5 3.56485 2.85768 1.83716 6.29399L5.33068 9.00486C6.16107 6.52306 8.48061 4.68083 11.2105 4.68083Z" fill="#EA4335"/>
</g>
</svg>
